#define MNL_icon_width 32
#define MNL_icon_height 32
static char MNL_icon_bits[] = {
  0x00, 0x00, 0x00, 0x00, 0x00, 0x00, 0x00, 0x00, 0x00, 0x00, 0x00, 0x00, 
  0x00, 0x00, 0x00, 0x00, 0x00, 0x10, 0x00, 0x00, 0x00, 0x04, 0x11, 0x00, 
  0x00, 0x48, 0x00, 0x00, 0x00, 0x00, 0x08, 0x00, 0x00, 0x21, 0x11, 0x00, 
  0x00, 0x00, 0x00, 0x00, 0x80, 0x05, 0x48, 0x00, 0xC0, 0x21, 0x00, 0x00, 
  0x80, 0x88, 0x21, 0x00, 0x00, 0xC0, 0x05, 0x00, 0x40, 0x83, 0x01, 0x00, 
  0x00, 0x00, 0x00, 0x00, 0x60, 0x01, 0x00, 0x00, 0x00, 0xBC, 0x00, 0x00, 
  0xA0, 0x42, 0x04, 0x00, 0x80, 0x25, 0x00, 0x00, 0x00, 0x98, 0x00, 0x00, 
  0x80, 0x02, 0x00, 0x00, 0x00, 0x00, 0x00, 0x00, 0x00, 0x20, 0x00, 0x00, 
  0x00, 0x00, 0x00, 0x00, 0x00, 0x40, 0x00, 0x00, 0x00, 0x00, 0x00, 0x00, 
  0x00, 0x18, 0x00, 0x00, 0x00, 0x00, 0x01, 0x00, 0x00, 0x40, 0x04, 0x00, 
  0x00, 0x60, 0x00, 0x00, 0x00, 0x02, 0x02, 0x00, };
